<svg xmlns="http://www.w3.org/2000/svg" width="42" height="39" fill="none" viewBox="0 0 42 39">
  <path fill="#4DC7E4" fill-rule="evenodd" d="M41.758 33.714c0 2.396-2.248 4.338-5.023 4.338H5.025C2.249 38.052 0 36.11 0 33.714V4.339C0 1.943 2.25 0 5.025 0h31.71c2.775 0 5.023 1.943 5.023 4.339v29.375Z" clip-rule="evenodd"/>
  <path fill="#FFFFFE" fill-rule="evenodd" d="m27.535 18.041 8.24-8.923-.026-.028-11.909 4.952-2.942-11.128h-.04l-2.942 11.128L6.007 9.09l-.026.028 8.241 8.923-11.91 4.953.011.035H15.54L12.6 34.157l.037.015 8.242-8.924 8.241 8.924.037-.016-2.94-11.127h13.218l.01-.035-11.91-4.953Z" clip-rule="evenodd"/>
</svg>
