<svg xmlns="http://www.w3.org/2000/svg" width="139" height="18" fill="none" viewBox="0 0 139 18">
  <path fill="#fff" fill-rule="evenodd" d="M.328 17.411V.648h5.166l6.545 12.527L18.487.648h4.95v16.763h-4.26V7.66l-4.915 9.752h-4.54l-4.98-9.699v9.698H.328Zm40.25-6.49-3.564-7.105-3.483 7.105h7.047Zm-10.233 6.49h-5.01L33.948.648h6.167l8.672 16.763h-4.944l-1.707-3.339H32l-1.655 3.34Zm20.445 0V.648h18.534V4H55.266v3.33h12.053v3.27H55.266v3.458h14.092v3.353H50.79ZM77.5 8.345h9.74V4H77.5v4.345Zm-4.54 9.066V.648h15.511c2.072 0 3.275 1.036 3.275 2.812v5.63c0 1.296-1.328 2.467-3.904 2.467-.146.006-.295 0-.448 0l4.515 5.853h-4.983l-4.28-5.731H77.5v5.731h-4.54Zm26.955.007H98.38c-2.007 0-2.973-1-2.973-2.459v-2.19h4.51v1.298h9.58v-3.432h-10.99c-1.754 0-3.018-1.018-3.018-2.432V3.226c0-1.506 1.376-2.57 3.05-2.57H111.1c1.698 0 2.873 1.094 2.873 2.677v2h-4.477V4.008h-9.58v3.301h10.957c1.618 0 3.1.925 3.1 2.704v4.784c0 1.63-1.047 2.621-3.005 2.621H99.915Zm18.382.002V.656h4.602v6.705l8.766-6.705h6.232l-10.458 7.787 10.834 8.977h-6.451l-8.923-7.624v7.624h-4.602Z" clip-rule="evenodd"/>
</svg>
